<svg width="850" height="741" viewBox="0 0 850 741" fill="none" xmlns="http://www.w3.org/2000/svg">
<g clip-path="url(#clip0)">
<g opacity="0.5">
<path opacity="0.5" d="M469.649 0.0789787L389.916 536.203L770.719 594.491L850.453 58.3672L469.649 0.0789787Z" fill="url(#paint0_linear)"/>
</g>
<path d="M473.558 4.72078L395.935 529.047L767.012 586.107L844.634 61.781L473.558 4.72078Z" fill="#F9F9F9"/>
<path d="M757.129 280.887L489.308 239.704L486.859 256.248L754.68 297.431L757.129 280.887Z" fill="#E0E0E0"/>
<path d="M751.007 322.239L483.186 281.056L480.737 297.601L748.558 338.783L751.007 322.239Z" fill="#E0E0E0"/>
<path d="M776.716 148.542L638.745 127.326L636.296 143.871L774.267 165.087L776.716 148.542Z" fill="#E0E0E0"/>
<path d="M758.426 188.033L644.801 170.561L642.351 187.106L755.977 204.578L758.426 188.033Z" fill="#0095FF"/>
<path d="M712.422 358.606L477.058 322.415L474.609 338.959L709.972 375.151L712.422 358.606Z" fill="#E0E0E0"/>
<path d="M673.826 394.973L470.93 363.773L468.481 380.318L671.377 411.517L673.826 394.973Z" fill="#E0E0E0"/>
<path d="M643.359 432.585L464.808 405.129L462.359 421.674L640.91 449.129L643.359 432.585Z" fill="#E0E0E0"/>
<path d="M685.929 481.43L458.687 446.487L456.238 463.032L683.48 497.975L685.929 481.43Z" fill="#E0E0E0"/>
<path d="M541.843 501.567L452.572 487.84L450.123 504.385L539.393 518.112L541.843 501.567Z" fill="#63FFF0"/>
<g opacity="0.5">
<path opacity="0.5" d="M612.595 150.082C614.004 140.551 612.968 130.81 609.588 121.808C606.208 112.806 600.599 104.849 593.307 98.7111C586.015 92.5735 577.287 88.4645 567.975 86.784C558.662 85.1036 549.081 85.9088 540.164 89.1215C531.247 92.3341 523.298 97.8447 517.091 105.117C510.884 112.389 506.63 121.175 504.742 130.62C502.855 140.065 503.399 149.847 506.322 159.014C509.244 168.181 514.445 176.421 521.419 182.932C521.419 183.011 521.419 183.1 521.419 183.179C522.929 185.189 524.816 186.872 526.969 188.133L527.076 187.895C529.283 190.5 539.44 195.691 551.717 197.544H551.989C559.765 198.752 568.407 198.643 576.426 195.691C576.426 195.691 576.513 195.553 576.659 195.295C578.673 194.682 580.577 193.742 582.297 192.511L582.472 191.897C590.441 187.936 597.346 182.06 602.594 174.776C607.841 167.492 611.273 159.018 612.595 150.082V150.082Z" fill="url(#paint1_linear)"/>
</g>
<path d="M610.726 147.799C615.105 118.223 595.129 90.6297 566.109 86.1673C537.089 81.7049 510.014 102.064 505.635 131.64C501.257 161.216 521.233 188.809 550.253 193.272C579.273 197.734 606.348 177.376 610.726 147.799Z" fill="#FAFAFA"/>
<path d="M533.958 157.561C533.958 157.561 521.322 156.68 521.157 180.435C522.624 182.377 524.454 184.004 526.542 185.22L537.176 162.009L533.958 157.561Z" fill="#FDA57D"/>
<path d="M574.589 163.812C574.589 163.812 586.953 166.784 580.207 189.52C578.244 190.941 576.024 191.951 573.675 192.491L570.224 167.121L574.589 163.812Z" fill="#FDA57D"/>
<path d="M540.14 119.56C540.14 119.56 531.567 136.312 528.564 134.153C528.564 134.153 555.838 166.576 587.614 143.227C585.142 136.916 581.937 130.929 578.068 125.395L540.14 119.56Z" fill="#333333"/>
<path d="M583.824 124.596C585.764 111.488 576.911 99.2583 564.049 97.2806C551.187 95.3028 539.187 104.326 537.247 117.434C535.306 130.542 544.16 142.772 557.022 144.75C569.883 146.728 581.883 137.704 583.824 124.596Z" fill="#333333"/>
<path opacity="0.1" d="M574.346 163.773L533.715 157.532L527.475 173.511C527.475 173.511 524.112 180.832 526.386 184.636C528.661 188.44 553.399 200.08 574.015 192.561C576.328 188.399 577.236 183.579 576.601 178.84C575.58 170.777 576.144 178.206 576.144 178.206L574.346 163.773Z" fill="black"/>
<path opacity="0.1" d="M574.89 163.862L534.26 157.621L528.029 173.59C528.029 173.59 524.666 180.911 526.94 184.715C529.215 188.519 553.953 200.159 574.569 192.64C576.882 188.478 577.79 183.658 577.155 178.92C576.134 170.856 576.698 178.286 576.698 178.286L574.89 163.862Z" fill="black"/>
<path d="M574.589 163.812L533.958 157.571L527.718 173.55C527.718 173.55 524.355 180.871 526.629 184.675C528.904 188.479 553.642 200.119 574.258 192.6C576.571 188.439 577.479 183.619 576.844 178.88C575.823 170.816 576.387 178.246 576.387 178.246L574.589 163.812Z" fill="#FDD835"/>
<path opacity="0.1" d="M548.443 145.787L564.695 148.286L562.482 163.234C562.224 164.983 561.294 166.555 559.898 167.605C558.502 168.654 556.754 169.096 555.038 168.832L551.712 168.321C549.997 168.057 548.454 167.109 547.424 165.687C546.394 164.264 545.961 162.482 546.22 160.734L548.433 145.786L548.443 145.787Z" fill="black"/>
<path d="M548.522 145.173L564.775 147.673L562.562 162.621C562.303 164.369 561.373 165.941 559.977 166.991C558.581 168.041 556.833 168.482 555.117 168.218L551.801 167.708C550.086 167.445 548.543 166.497 547.513 165.074C546.483 163.651 546.05 161.87 546.309 160.121L548.522 145.173Z" fill="#FDA57D"/>
<path opacity="0.1" d="M548.218 147.516C553.159 150.316 558.921 151.22 564.46 150.062L564.761 148.031L548.509 145.535L548.218 147.516Z" fill="black"/>
<path d="M583.061 129.745C585.002 116.636 576.148 104.407 563.286 102.429C550.424 100.451 538.425 109.474 536.484 122.583C534.543 135.691 543.397 147.92 556.259 149.898C569.121 151.876 581.12 142.853 583.061 129.745Z" fill="#FDA57D"/>
<path d="M538.789 113.706L583.21 120.531C583.21 120.531 582.122 101.709 565.16 100.253C548.198 98.7966 538.789 113.706 538.789 113.706Z" fill="#333333"/>
<path d="M539.271 121.968C539.61 119.679 538.916 117.675 537.722 117.492C536.528 117.308 535.285 119.014 534.946 121.303C534.607 123.591 535.301 125.595 536.495 125.779C537.689 125.962 538.932 124.256 539.271 121.968Z" fill="#FDA57D"/>
<path d="M584.776 128.969C585.114 126.68 584.421 124.676 583.227 124.493C582.032 124.309 580.789 126.015 580.451 128.304C580.112 130.592 580.805 132.596 582 132.78C583.194 132.963 584.437 131.257 584.776 128.969Z" fill="#FDA57D"/>
<path opacity="0.1" d="M538.721 114.32L583.142 121.145C583.142 121.145 582.054 102.323 565.092 100.867C548.13 99.4108 538.721 114.32 538.721 114.32Z" fill="black"/>
<g opacity="0.5">
<path opacity="0.5" d="M381.589 77.3427L0.320496 139.855L85.8302 676.617L467.098 614.105L381.589 77.3427Z" fill="url(#paint2_linear)"/>
</g>
<path d="M375.811 80.197L5.47748 142.071L89.6482 665.347L459.981 603.473L375.811 80.197Z" fill="#F9F9F9"/>
<path d="M358.644 316.057L91.3589 360.714L94.0149 377.226L361.3 332.569L358.644 316.057Z" fill="#E0E0E0"/>
<path d="M365.282 357.333L97.9975 401.99L100.653 418.502L367.938 373.845L365.282 357.333Z" fill="#E0E0E0"/>
<path d="M337.408 183.982L199.713 206.988L202.369 223.499L340.064 200.494L337.408 183.982Z" fill="#E0E0E0"/>
<path d="M331.894 227.289L218.495 246.235L221.151 262.747L334.55 243.801L331.894 227.289Z" fill="#0095FF"/>
<path d="M339.529 404.02L104.636 443.265L107.292 459.777L342.184 420.532L339.529 404.02Z" fill="#E0E0E0"/>
<path d="M313.764 450.699L111.274 484.53L113.93 501.042L316.42 467.21L313.764 450.699Z" fill="#E0E0E0"/>
<path d="M296.106 496.04L117.913 525.812L120.569 542.323L298.762 512.551L296.106 496.04Z" fill="#E0E0E0"/>
<path d="M351.34 529.186L124.553 567.077L127.209 583.589L353.996 545.698L351.34 529.186Z" fill="#E0E0E0"/>
<path d="M220.29 593.472L131.198 608.357L133.854 624.868L222.946 609.983L220.29 593.472Z" fill="#FF6363"/>
<g opacity="0.5">
<path opacity="0.5" d="M186.666 233.256C185.092 223.478 181.061 214.282 174.965 206.563C168.869 198.843 160.916 192.864 151.88 189.206C142.845 185.548 133.034 184.337 123.402 185.689C113.77 187.042 104.647 190.913 96.9183 196.925C89.1901 202.938 83.1207 210.887 79.3008 219.999C75.4809 229.111 74.0407 239.076 75.1203 248.923C76.1999 258.771 79.7625 268.166 85.4614 276.194C91.1604 284.222 98.8015 290.61 107.641 294.735L107.719 294.983C109.82 296.452 112.185 297.483 114.679 298.014V297.747C117.643 299.59 129.191 301.402 141.778 299.263H142.051C150.031 297.945 158.449 295.053 165.379 289.584C165.379 289.584 165.379 289.426 165.476 289.128C167.258 287.882 168.83 286.349 170.132 284.591C170.132 284.367 170.132 284.149 170.132 283.937C176.716 277.491 181.662 269.508 184.543 260.679C187.423 251.849 188.152 242.437 186.666 233.256V233.256Z" fill="url(#paint3_linear)"/>
</g>
<path d="M139.94 297.463C169.713 292.489 189.891 263.859 185.011 233.516C180.13 203.173 152.038 182.608 122.265 187.582C92.4929 192.556 72.3142 221.187 77.1949 251.53C82.0757 281.872 110.168 302.438 139.94 297.463Z" fill="#FAFAFA"/>
<path d="M111.218 267.919C111.218 267.919 98.582 271.138 105.775 294.418C107.811 295.855 110.108 296.865 112.53 297.39L115.748 271.257L111.218 267.919Z" fill="#2F2F2F"/>
<path d="M152.898 260.955C152.898 260.955 165.914 259.875 166.351 284.304C164.865 286.306 163.005 287.99 160.879 289.257L149.642 265.541L152.898 260.955Z" fill="#2F2F2F"/>
<path d="M129.769 247.939C142.965 245.734 151.909 233.044 149.746 219.595C147.583 206.146 135.131 197.031 121.935 199.235C108.738 201.44 99.7945 214.13 101.958 227.579C104.121 241.028 116.573 250.144 129.769 247.939Z" fill="#333333"/>
<path d="M152.655 260.994L110.975 267.929L109.819 285.572C109.819 285.572 108.847 293.824 112.2 296.806C115.553 299.788 143.421 303.225 161.199 289.198C162.172 284.382 161.568 279.374 159.479 274.943C155.98 267.384 158.828 274.467 158.828 274.467L152.655 260.994Z" fill="#4D8AF0"/>
<path d="M153.209 260.905L111.529 267.84L110.373 285.483C110.373 285.483 109.401 293.735 112.754 296.717C116.107 299.699 143.975 303.136 161.753 289.109C162.727 284.293 162.122 279.285 160.033 274.853C156.534 267.295 159.382 274.378 159.382 274.378L153.209 260.905Z" fill="#2F2F2F"/>
<path d="M152.898 260.955L111.218 267.889L110.061 285.562C110.061 285.562 109.089 293.814 112.443 296.796C115.796 299.778 143.664 303.215 161.442 289.188C162.415 284.372 161.811 279.364 159.722 274.933C156.223 267.374 159.071 274.457 159.071 274.457L152.898 260.955Z" fill="#2F2F2F"/>
<path opacity="0.1" d="M121.749 251.675L138.42 248.89L140.915 264.404C141.196 266.149 140.785 267.936 139.773 269.372C138.761 270.808 137.23 271.776 135.518 272.062L131.748 272.691C130.036 272.978 128.283 272.559 126.874 271.527C125.465 270.496 124.515 268.936 124.235 267.191L121.739 251.676L121.749 251.675Z" fill="black"/>
<path d="M121.649 251.045L138.32 248.26L140.816 263.774C141.097 265.519 140.686 267.306 139.674 268.743C138.661 270.179 137.131 271.146 135.419 271.432L131.649 272.062C129.937 272.348 128.183 271.929 126.774 270.898C125.365 269.866 124.416 268.306 124.135 266.561L121.64 251.047L121.649 251.045Z" fill="#FDA57D"/>
<path opacity="0.1" d="M122.056 253.495C127.758 254.646 133.676 253.676 138.736 250.761L138.396 248.671L121.726 251.464L122.056 253.495Z" fill="black"/>
<path d="M130.627 253.226C143.823 251.022 152.767 238.332 150.603 224.882C148.44 211.433 135.989 202.318 122.792 204.523C109.596 206.728 100.652 219.418 102.815 232.867C104.979 246.316 117.43 255.431 130.627 253.226Z" fill="#FDA57D"/>
<path opacity="0.1" d="M102.46 224.073L148.038 216.465C148.038 216.465 141.127 198.356 124.097 202.437C107.068 206.519 102.46 224.073 102.46 224.073Z" fill="black"/>
<path d="M102.353 223.449L147.97 215.831C147.97 215.831 141.059 197.722 124.029 201.803C107 205.885 102.353 223.449 102.353 223.449Z" fill="#333333"/>
<path d="M104.106 237.456C105.339 237.253 106.035 235.178 105.662 232.822C105.288 230.466 103.986 228.72 102.753 228.923C101.52 229.127 100.823 231.201 101.197 233.557C101.57 235.914 102.873 237.659 104.106 237.456Z" fill="#FDA57D"/>
<path d="M150.499 228.192C151.728 227.987 152.419 225.916 152.041 223.568C151.663 221.219 150.36 219.482 149.131 219.687C147.902 219.893 147.212 221.963 147.59 224.312C147.968 226.66 149.27 228.398 150.499 228.192Z" fill="#FDA57D"/>
<g opacity="0.5">
<path opacity="0.5" d="M659.796 163.921H274.721V706.168H659.796V163.921Z" fill="url(#paint4_linear)"/>
</g>
<path d="M654.897 167.914H279.62V698.174H654.897V167.914Z" fill="white"/>
<g opacity="0.5">
<path opacity="0.5" d="M329.737 289.237C329.739 279.106 332.313 269.147 337.211 260.331C342.109 251.514 349.162 244.14 357.686 238.926C366.209 233.712 375.912 230.836 385.85 230.577C395.788 230.319 405.622 232.686 414.395 237.45C423.169 242.214 430.583 249.212 435.916 257.762C441.248 266.312 444.318 276.124 444.827 286.242C445.335 296.361 443.265 306.441 438.817 315.501C434.369 324.562 427.695 332.295 419.445 337.947V338.205C417.564 340.044 415.344 341.486 412.913 342.445L412.835 342.187C410.143 344.545 398.79 348.319 385.745 348.28H385.463C377.201 348.28 368.239 346.794 360.346 342.445C360.346 342.445 360.278 342.286 360.171 341.999C358.171 341.041 356.337 339.76 354.738 338.205L354.65 337.541C346.966 332.152 340.683 324.939 336.343 316.524C332.003 308.109 329.736 298.744 329.737 289.237Z" fill="url(#paint5_linear)"/>
</g>
<path d="M387.31 346.16C418.156 346.16 443.162 320.675 443.162 289.237C443.162 257.8 418.156 232.315 387.31 232.315C356.464 232.315 331.458 257.8 331.458 289.237C331.458 320.675 356.464 346.16 387.31 346.16Z" fill="#FAFAFA"/>
<path d="M365.401 310.923C365.401 310.923 352.094 312.022 355.613 336.788C357.438 338.572 359.592 339.97 361.95 340.899L369.435 315.073L365.401 310.923Z" fill="#BE7C5E"/>
<path d="M408.587 310.923C408.587 310.923 421.894 312.022 418.376 336.788C416.551 338.572 414.397 339.97 412.038 340.899L404.583 314.994L408.587 310.923Z" fill="#BE7C5E"/>
<path d="M365.974 270.415C365.974 270.415 364.954 273.457 363.496 276.973C360.327 284.661 363.943 314.202 371.525 317.352C380.03 320.888 391.218 323.147 402.833 318.828C412.932 315.073 416.043 281.451 408.908 273.258C408.072 272.268 407.198 271.346 406.284 270.415H365.974Z" fill="#333333"/>
<path d="M387.349 293.893C401.022 293.893 412.106 282.597 412.106 268.662C412.106 254.727 401.022 243.43 387.349 243.43C373.676 243.43 362.592 254.727 362.592 268.662C362.592 282.597 373.676 293.893 387.349 293.893Z" fill="#333333"/>
<path opacity="0.1" d="M408.335 310.923H365.148L361.114 328.526C361.114 328.526 358.742 336.679 361.688 340.265C364.633 343.851 392.141 352.004 412.359 340.85C414.12 336.155 414.322 331.001 412.932 326.178C410.629 317.966 412.359 325.594 412.359 325.594L408.335 310.923Z" fill="black"/>
<path opacity="0.1" d="M408.908 310.923H365.702L361.668 328.526C361.668 328.526 359.297 336.679 362.242 340.265C365.187 343.851 392.695 352.004 412.913 340.85C414.674 336.155 414.876 331.001 413.486 326.178C411.183 317.966 412.913 325.594 412.913 325.594L408.908 310.923Z" fill="black"/>
<path d="M408.587 310.923H365.401L361.367 328.526C361.367 328.526 358.995 336.679 361.94 340.265C364.886 343.851 392.394 352.004 412.612 340.85C414.373 336.155 414.575 331.001 413.185 326.178C410.881 317.966 412.612 325.594 412.612 325.594L408.587 310.923Z" fill="#D23A3A"/>
<path opacity="0.1" d="M378.649 296.311H395.922V312.537C395.922 314.305 395.233 316.001 394.006 317.252C392.779 318.502 391.115 319.204 389.38 319.204H385.181C383.446 319.204 381.782 318.502 380.556 317.252C379.329 316.001 378.64 314.305 378.64 312.537V296.311H378.649Z" fill="black"/>
<path d="M378.649 295.657H395.922V311.883C395.922 313.652 395.233 315.347 394.006 316.598C392.779 317.848 391.115 318.551 389.38 318.551H385.181C383.446 318.551 381.782 317.848 380.556 316.598C379.329 315.347 378.64 313.652 378.64 311.883V295.657H378.649Z" fill="#BE7C5E"/>
<path opacity="0.1" d="M378.678 298.153C384.251 300.257 390.379 300.257 395.951 298.153V295.994H378.678V298.153Z" fill="black"/>
<path d="M387.349 299.372C401.022 299.372 412.106 288.075 412.106 274.14C412.106 260.205 401.022 248.908 387.349 248.908C373.676 248.908 362.592 260.205 362.592 274.14C362.592 288.075 373.676 299.372 387.349 299.372Z" fill="#BE7C5E"/>
<path d="M363.671 264.561H410.891C410.891 264.561 406.857 245.124 389.011 246.372C371.165 247.621 363.671 264.561 363.671 264.561Z" fill="#333333"/>
<path d="M363.107 277.469C364.379 277.469 365.41 275.499 365.41 273.07C365.41 270.641 364.379 268.672 363.107 268.672C361.834 268.672 360.803 270.641 360.803 273.07C360.803 275.499 361.834 277.469 363.107 277.469Z" fill="#BE7C5E"/>
<path d="M411.474 277.469C412.747 277.469 413.778 275.499 413.778 273.07C413.778 270.641 412.747 268.672 411.474 268.672C410.202 268.672 409.171 270.641 409.171 273.07C409.171 275.499 410.202 277.469 411.474 277.469Z" fill="#BE7C5E"/>
<path opacity="0.1" d="M363.671 265.204H410.891C410.891 265.204 406.857 245.768 389.011 247.016C371.165 248.265 363.671 265.204 363.671 265.204Z" fill="black"/>
<path d="M600.512 397.841H329.66V414.573H600.512V397.841Z" fill="#E0E0E0"/>
<path d="M600.512 439.666H329.66V456.398H600.512V439.666Z" fill="#E0E0E0"/>
<path d="M600.522 264.006H460.989V280.738H600.522V264.006Z" fill="#E0E0E0"/>
<path d="M588.207 305.831H473.295V322.563H588.207V305.831Z" fill="#0095FF"/>
<path d="M567.687 481.491H329.66V498.223H567.687V481.491Z" fill="#E0E0E0"/>
<path d="M534.853 523.316H329.66V540.048H534.853V523.316Z" fill="#E0E0E0"/>
<path d="M510.231 565.151H329.66V581.883H510.231V565.151Z" fill="#E0E0E0"/>
<path d="M559.474 606.976H329.66V623.708H559.474V606.976Z" fill="#E0E0E0"/>
<path d="M419.941 648.8H329.66V665.532H419.941V648.8Z" fill="#FF6363"/>
<g opacity="0.5">
<path opacity="0.5" d="M633.823 740.95C679.126 740.95 715.852 703.521 715.852 657.35C715.852 611.179 679.126 573.75 633.823 573.75C588.52 573.75 551.795 611.179 551.795 657.35C551.795 703.521 588.52 740.95 633.823 740.95Z" fill="url(#paint6_linear)"/>
</g>
<path d="M633.823 736.026C676.458 736.026 711.021 700.802 711.021 657.35C711.021 613.898 676.458 578.673 633.823 578.673C591.188 578.673 556.626 613.898 556.626 657.35C556.626 700.802 591.188 736.026 633.823 736.026Z" fill="#0095FF"/>
<path d="M600.318 646.849L629.265 673.893L670.274 612.434L684.757 624.728L629.265 698.481L588.255 651.772L600.318 646.849Z" fill="white"/>
</g>
<defs>
<linearGradient id="paint0_linear" x1="580.317" y1="565.347" x2="662.327" y2="29.5714" gradientUnits="userSpaceOnUse">
<stop stop-color="#808080" stop-opacity="0.25"/>
<stop offset="0.54" stop-color="#808080" stop-opacity="0.12"/>
<stop offset="1" stop-color="#808080" stop-opacity="0.1"/>
</linearGradient>
<linearGradient id="paint1_linear" x1="64202.8" y1="82133.9" x2="66132.3" y2="69585.9" gradientUnits="userSpaceOnUse">
<stop stop-color="#808080" stop-opacity="0.25"/>
<stop offset="0.54" stop-color="#808080" stop-opacity="0.12"/>
<stop offset="1" stop-color="#808080" stop-opacity="0.1"/>
</linearGradient>
<linearGradient id="paint2_linear" x1="214047" y1="177133" x2="165911" y2="-116456" gradientUnits="userSpaceOnUse">
<stop stop-color="#808080" stop-opacity="0.25"/>
<stop offset="0.54" stop-color="#808080" stop-opacity="0.12"/>
<stop offset="1" stop-color="#808080" stop-opacity="0.1"/>
</linearGradient>
<linearGradient id="paint3_linear" x1="44125" y1="-4429.19" x2="41921.7" y2="-17616.4" gradientUnits="userSpaceOnUse">
<stop stop-color="#808080" stop-opacity="0.25"/>
<stop offset="0.54" stop-color="#808080" stop-opacity="0.12"/>
<stop offset="1" stop-color="#808080" stop-opacity="0.1"/>
</linearGradient>
<linearGradient id="paint4_linear" x1="185384" y1="386699" x2="185384" y2="89889.5" gradientUnits="userSpaceOnUse">
<stop stop-color="#808080" stop-opacity="0.25"/>
<stop offset="0.54" stop-color="#808080" stop-opacity="0.12"/>
<stop offset="1" stop-color="#808080" stop-opacity="0.1"/>
</linearGradient>
<linearGradient id="paint5_linear" x1="58505.3" y1="50568.5" x2="58505.3" y2="36577.2" gradientUnits="userSpaceOnUse">
<stop stop-color="#808080" stop-opacity="0.25"/>
<stop offset="0.54" stop-color="#808080" stop-opacity="0.12"/>
<stop offset="1" stop-color="#808080" stop-opacity="0.1"/>
</linearGradient>
<linearGradient id="paint6_linear" x1="107528" y1="125630" x2="107528" y2="97411.2" gradientUnits="userSpaceOnUse">
<stop stop-color="#808080" stop-opacity="0.25"/>
<stop offset="0.54" stop-color="#808080" stop-opacity="0.12"/>
<stop offset="1" stop-color="#808080" stop-opacity="0.1"/>
</linearGradient>
<clipPath id="clip0">
<rect width="850" height="740.94" fill="white"/>
</clipPath>
</defs>
</svg>
